HIERARCHY
ROOT Hips
{
	OFFSET 50.155499 16.421686 85.579002
	CHANNELS 6 Xposition Yposition Zposition Xrotation Yrotation Zrotation
	JOINT spine
	{
		OFFSET 0.000000 -0.367607 6.392601
		CHANNELS 3 Xrotation Yrotation Zrotation
		JOINT spine1
		{
			OFFSET 0.000000 -0.000002 9.176109
			CHANNELS 3 Xrotation Yrotation Zrotation
			JOINT spine2
			{
				OFFSET 0.000000 0.000000 8.792381
				CHANNELS 3 Xrotation Yrotation Zrotation
				JOINT Neck
				{
					OFFSET 0.000000 -1.076244 22.573700
					CHANNELS 3 Xrotation Yrotation Zrotation
					JOINT Head
					{
						OFFSET 0.000000 -0.000001 6.820114
						CHANNELS 3 Xrotation Yrotation Zrotation
						End Site
						{
							OFFSET 0.000000 5.444268 16.508499
						}
					}
				}
				JOINT RightShoulder
				{
					OFFSET -3.702209 0.515507 9.495087
					CHANNELS 3 Xrotation Yrotation Zrotation
					JOINT RightArm
					{
						OFFSET 0.000000 -0.000002 12.453705
						CHANNELS 3 Xrotation Yrotation Zrotation
						JOINT RightArmRoll
						{
							OFFSET 0.000000 -0.000002 6.286865
							CHANNELS 3 Xrotation Yrotation Zrotation
							JOINT RightForeArm
							{
								OFFSET 0.000000 -0.000002 18.311401
								CHANNELS 3 Xrotation Yrotation Zrotation
								JOINT RightForeArmRoll
								{
									OFFSET 0.000000 -0.000002 7.054825
									CHANNELS 3 Xrotation Yrotation Zrotation
									JOINT RightHand
									{
										OFFSET 0.000000 -0.000002 14.157501
										CHANNELS 3 Xrotation Yrotation Zrotation
										End Site
										{
											OFFSET 0.000000 0.000000 0.100006
										}
									}
								}
							}
						}
					}
				}
				JOINT LeftShoulder
				{
					OFFSET 3.702209 0.515507 9.495087
					CHANNELS 3 Xrotation Yrotation Zrotation
					JOINT LeftArm
					{
						OFFSET 0.000000 -0.000002 12.453705
						CHANNELS 3 Xrotation Yrotation Zrotation
						JOINT LeftArmRoll
						{
							OFFSET 0.000000 -0.000002 6.286865
							CHANNELS 3 Xrotation Yrotation Zrotation
							JOINT LeftForeArm
							{
								OFFSET 0.000000 -0.000002 18.311401
								CHANNELS 3 Xrotation Yrotation Zrotation
								JOINT LeftForeArmRoll
								{
									OFFSET 0.000000 -0.000002 7.054825
									CHANNELS 3 Xrotation Yrotation Zrotation
									JOINT LeftHand
									{
										OFFSET 0.000000 -0.000002 14.157501
										CHANNELS 3 Xrotation Yrotation Zrotation
										End Site
										{
											OFFSET 0.000000 0.000000 0.100006
										}
									}
								}
							}
						}
					}
				}
			}
		}
	}
	JOINT RightUpLeg
	{
		OFFSET -5.666161 0.871611 -1.039032
		CHANNELS 3 Xrotation Yrotation Zrotation
		JOINT RightUpLegRoll
		{
			OFFSET 0.000000 -0.000004 16.600502
			CHANNELS 3 Xrotation Yrotation Zrotation
			JOINT RightLeg
			{
				OFFSET 0.000000 0.000004 -20.557198
				CHANNELS 3 Xrotation Yrotation Zrotation
				JOINT RightLegRoll
				{
					OFFSET 0.000000 -0.000004 20.624397
					CHANNELS 3 Xrotation Yrotation Zrotation
					JOINT RightFoot
					{
						OFFSET 0.000000 -0.000002 17.166397
						CHANNELS 3 Xrotation Yrotation Zrotation
						JOINT RightToeBase
						{
							OFFSET 0.000000 -0.000002 14.350204
							CHANNELS 3 Xrotation Yrotation Zrotation
							End Site
							{
								OFFSET 0.006081 0.801060 6.949707
							}
						}
					}
				}
			}
		}
	}
	JOINT LeftUpLeg
	{
		OFFSET 5.666161 0.871611 -1.039032
		CHANNELS 3 Xrotation Yrotation Zrotation
		JOINT LeftUpLegRoll
		{
			OFFSET 0.000000 -0.000004 16.600601
			CHANNELS 3 Xrotation Yrotation Zrotation
			JOINT LeftLeg
			{
				OFFSET 0.000000 -0.000002 20.557098
				CHANNELS 3 Xrotation Yrotation Zrotation
				JOINT LeftLegRoll
				{
					OFFSET 0.000000 -0.000004 20.815102
					CHANNELS 3 Xrotation Yrotation Zrotation
					JOINT LeftFoot
					{
						OFFSET 0.000000 -0.000004 16.975693
						CHANNELS 3 Xrotation Yrotation Zrotation
						JOINT LeftToeBase
						{
							OFFSET 0.000000 -0.000002 14.350204
							CHANNELS 3 Xrotation Yrotation Zrotation
							End Site
							{
								OFFSET -0.027260 0.801062 6.949707
							}
						}
					}
				}
			}
		}
	}
}
MOTION
Frames: 10
Frame Time: 0.041667
65.372002 10.774689 81.825302 14.582821 -3.854838 3.125297 -1.199877 1.142019 -0.126639 1.605458 2.285114 -0.240237 3.251053 2.282075 -0.267606 -3.588839 -6.684725 -1.305810 0.662590 2.925124 0.027869 -19.768159 -51.974328 -23.432267 -17.040697 -108.790543 -10.121715 -0.000001 0.000002 -0.000002 3.470025 -15.609834 0.438054 0.000002 -0.000003 -2.994340 -5.000202 -7.998856 0.000158 -10.926702 39.990665 11.760252 2.930517 116.252743 -2.073313 -0.000002 -0.000007 0.000003 15.506761 13.503011 -1.396696 -0.000005 -0.000007 3.000000 -5.000220 7.998715 -0.000163 -33.940040 -172.583649 2.305837 -179.999991 0.000005 -0.967997 132.900359 -3.352909 -2.855303 0.000001 -0.000000 1.176550 78.434204 6.845657 1.081911 39.901706 -7.302480 1.142303 -31.702108 182.284854 1.924540 -0.000007 0.000011 -1.013510 -43.803229 2.007502 1.480732 -0.000002 0.000004 -1.138620 75.980213 -6.377579 -2.815983 40.844347 6.818612 -2.961523 
65.434097 10.862688 81.199104 14.739453 -4.029301 3.217659 -1.178937 1.176721 -0.121968 1.647317 2.354398 -0.230910 3.292945 2.351466 -0.259111 -3.855609 -6.754759 -1.382488 0.450628 3.000097 -0.019780 -20.003326 -52.024458 -23.722632 -17.599077 -108.850976 -10.620653 -0.000002 0.000004 -0.000002 3.403061 -15.538785 0.424024 0.000002 -0.000004 -2.993421 -5.000200 -7.998854 0.000156 -10.722681 40.050949 11.493141 2.788391 116.281935 -1.943525 -0.000003 -0.000007 0.000004 15.692276 13.429478 -1.402304 -0.000005 -0.000007 3.000000 -5.000219 7.998715 -0.000163 -34.695824 -172.355985 2.378071 -179.999991 0.000005 -0.971002 131.480991 -3.242089 -2.838029 0.000001 -0.000000 1.290950 79.989554 6.790117 1.077875 39.112327 -7.295544 1.131933 -32.530036 182.488680 1.795720 -0.000005 0.000011 -1.023410 -45.288047 2.061359 1.511532 -0.000001 0.000004 -1.243050 77.311437 -6.328518 -2.887435 40.342628 6.877974 -2.773172 
65.416496 11.114588 80.794907 14.897529 -4.199774 3.308458 -1.157237 1.210643 -0.117722 1.690721 2.422147 -0.222491 3.336378 2.419308 -0.251506 -4.134181 -6.819736 -1.457194 0.242632 3.073842 -0.064738 -20.236000 -52.076210 -24.009852 -18.196985 -108.926764 -11.153754 -0.000001 0.000002 -0.000002 3.335454 -15.460533 0.407528 0.000002 -0.000003 -2.992710 -5.000200 -7.998856 0.000157 -10.525576 40.114138 11.235575 2.608012 116.311578 -1.779555 -0.000003 -0.000006 0.000003 15.861868 13.351803 -1.404825 -0.000005 -0.000007 3.000000 -5.000220 7.998715 -0.000163 -35.460802 -172.135493 2.441347 -179.999991 0.000005 -0.973993 130.067743 -3.127574 -2.814311 0.000000 -0.000001 1.406790 81.549050 6.738143 1.081703 38.292745 -7.289817 1.120222 -33.365966 182.687630 1.661377 -0.000004 0.000011 -1.033640 -46.770820 2.109805 1.544528 -0.000004 0.000004 -1.349200 78.647921 -6.285042 -2.964695 39.812097 6.936618 -2.577603 
65.471802 11.204687 80.358803 15.055772 -4.363638 3.396979 -1.134535 1.243247 -0.114023 1.736148 2.487249 -0.215249 3.381844 2.484501 -0.245046 -4.427140 -6.878590 -1.529402 0.042936 3.145658 -0.106550 -20.464570 -52.129780 -24.292020 -18.845440 -109.017558 -11.728729 -0.000002 0.000001 -0.000003 3.265491 -15.372591 0.387465 0.000002 -0.000003 -2.992291 -5.000201 -7.998856 0.000156 -10.338825 40.179851 10.992077 2.381182 116.343666 -1.573422 -0.000001 -0.000007 0.000003 16.011712 13.269596 -1.403732 -0.000005 -0.000006 3.000001 -5.000219 7.998714 -0.000164 -36.231500 -171.926230 2.495689 -179.999991 0.000005 -0.976999 128.668770 -3.010935 -2.787348 -0.000000 -0.000001 1.522660 83.086164 6.690803 1.092935 37.468912 -7.285388 1.108119 -34.205249 182.880023 1.522546 -0.000007 0.000011 -1.044240 -48.241985 2.150323 1.579023 -0.000002 0.000004 -1.456030 79.967411 -6.247757 -3.046738 39.273427 6.992451 -2.380637 
65.523399 11.459387 79.873810 15.213014 -4.518262 3.482436 -1.110564 1.273991 -0.111000 1.784105 2.548646 -0.209450 3.429830 2.545958 -0.239984 -4.737082 -6.930317 -1.598573 -0.144134 3.214839 -0.144791 -20.687584 -52.185268 -24.567280 -19.549248 -109.128822 -12.346766 -0.000002 0.000001 -0.000003 3.191459 -15.272390 0.362762 0.000002 -0.000003 -2.992222 -5.000201 -7.998856 0.000158 -10.165970 40.248228 10.767320 2.099942 116.378309 -1.317421 -0.000002 -0.000007 0.000004 16.137695 13.182569 -1.398477 -0.000005 -0.000007 3.000001 -5.000219 7.998715 -0.000164 -37.004490 -171.731924 2.541180 -179.999991 0.000005 -0.981002 127.292146 -2.891229 -2.758219 0.000002 -0.000001 1.637180 84.574169 6.648903 1.110608 36.666798 -7.282204 1.096495 -35.043204 183.064287 1.380424 -0.000006 0.000011 -1.055260 -49.691989 2.180422 1.613988 0.000000 0.000004 -1.562490 81.247368 -6.216899 -3.132645 38.746997 7.043851 -2.188227 
65.563004 11.579289 79.443100 15.368071 -4.661050 3.564029 -1.085102 1.302317 -0.108777 1.835088 2.605226 -0.205357 3.480858 2.602587 -0.236571 -5.066601 -6.973874 -1.664136 -0.314246 3.280650 -0.179064 -20.903630 -52.242969 -24.833864 -20.317106 -109.261505 -13.013137 -0.000002 0.000002 -0.000002 3.111658 -15.157158 0.332359 0.000002 -0.000003 -2.992600 -5.000202 -7.998856 0.000155 -10.010548 40.319129 10.565931 1.756341 116.416736 -1.003862 -0.000001 -0.000006 0.000003 16.235979 13.090022 -1.388504 -0.000005 -0.000007 3.000000 -5.000220 7.998714 -0.000164 -37.776267 -171.556143 2.577935 -179.999991 0.000005 -0.985003 125.945984 -2.768373 -2.725791 0.000002 -0.000001 1.748949 85.986344 6.612796 1.134068 35.912407 -7.280148 1.086235 -35.875241 183.238949 1.236287 -0.000005 0.000010 -1.066740 -51.111234 2.197698 1.648151 0.000004 0.000004 -1.667550 82.465655 -6.192106 -3.221112 38.253270 7.089563 -2.006387 
65.592201 11.811291 79.029808 15.519745 -4.789395 3.640908 -1.057884 1.327683 -0.107479 1.889599 2.655907 -0.203231 3.535395 2.653288 -0.235054 -5.418270 -7.008269 -1.725506 -0.463062 3.342331 -0.208995 -21.111263 -52.303079 -25.089974 -21.153852 -109.419555 -13.729040 -0.000001 0.000002 -0.000002 3.024400 -15.024502 0.295256 0.000002 -0.000002 -2.993481 -5.000201 -7.998855 0.000157 -9.876107 40.392523 10.392560 1.342561 116.460271 -0.625193 -0.000003 -0.000007 0.000004 16.302678 12.991647 -1.373396 -0.000005 -0.000007 3.000000 -5.000219 7.998714 -0.000163 -38.543229 -171.402996 2.606711 -179.999991 0.000005 -0.990003 124.638453 -2.641836 -2.694054 0.000001 -0.000001 1.856560 87.296101 6.582366 1.161918 35.231758 -7.278961 1.078208 -36.696752 183.403516 1.090930 -0.000006 0.000011 -1.078730 -52.490291 2.199788 1.679974 0.000001 0.000004 -1.770160 83.599863 -6.172748 -3.310849 37.812918 7.128672 -1.841260 
65.638397 11.959590 78.559303 15.666839 -4.900709 3.712179 -1.028654 1.349543 -0.107232 1.948130 2.699602 -0.203329 3.593957 2.696974 -0.235676 -5.794693 -7.032513 -1.782062 -0.586249 3.399143 -0.234225 -21.308735 -52.365892 -25.333491 -22.064149 -109.606177 -14.495466 0.000000 0.000004 -0.000002 2.928001 -14.871728 0.250491 0.000002 -0.000002 -2.994961 -5.000201 -7.998856 0.000157 -9.766231 40.468458 10.251921 0.851033 116.508534 -0.174147 -0.000001 -0.000007 0.000004 16.333786 12.887011 -1.352708 -0.000005 -0.000006 3.000000 -5.000220 7.998715 -0.000163 -39.301858 -171.276310 2.628282 -179.999991 0.000005 -0.996001 123.377709 -2.510753 -2.661164 -0.000001 -0.000001 1.958630 88.476788 6.557006 1.193361 34.650772 -7.278323 1.073231 -37.503179 183.555979 0.946378 -0.000007 0.000011 -1.091270 -53.819504 2.184430 1.707713 0.000002 0.000004 -1.869299 84.627772 -6.157604 -3.400469 37.446451 7.160554 -1.699013 
65.676804 12.199887 78.091408 15.808131 -4.992423 3.776935 -0.997188 1.367353 -0.108156 2.011181 2.735197 -0.205899 3.657023 2.732534 -0.238672 -6.198433 -7.045649 -1.833116 -0.679472 3.450327 -0.254409 -21.494897 -52.431578 -25.562825 -23.052539 -109.823882 -15.313320 -0.000002 -0.000000 -0.000003 2.820794 -14.696154 0.197141 0.000002 -0.000003 -2.997110 -5.000201 -7.998855 0.000158 -9.684554 40.547018 10.148795 0.274238 116.565265 0.356511 -0.000003 -0.000006 0.000003 16.325633 12.775541 -1.326091 -0.000005 -0.000006 3.000000 -5.000220 7.998713 -0.000163 -40.048555 -171.180414 2.643980 -179.999991 0.000005 -1.002995 122.171648 -2.374995 -2.631042 0.000000 -0.000000 2.053759 89.501686 6.536053 1.227156 34.195373 -7.277858 1.072163 -38.289655 183.695315 0.804213 -0.000005 0.000011 -1.104400 -55.089338 2.149434 1.729486 0.000004 0.000004 -1.963910 85.526932 -6.145417 -3.488336 37.174616 7.184758 -1.585855 
65.721603 12.360486 77.649704 15.942327 -5.061979 3.834230 -0.963223 1.380554 -0.110372 2.079244 2.761614 -0.211186 3.725102 2.758888 -0.244276 -6.632080 -7.046769 -1.877969 -0.738398 3.495140 -0.269207 -21.667978 -52.500440 -25.775875 -24.121110 -110.076312 -16.180798 -0.000001 0.000002 -0.000003 2.701129 -14.495164 0.134364 0.000002 -0.000003 -2.999999 -5.000202 -7.998856 0.000157 -9.634663 40.628059 10.087904 -0.394930 116.632529 0.973519 -0.000004 -0.000006 0.000003 16.274140 12.656855 -1.293205 -0.000005 -0.000007 3.000001 -5.000219 7.998714 -0.000163 -40.779812 -171.118628 2.654540 -179.999991 0.000005 -1.011997 121.028657 -2.233027 -2.602059 0.000004 -0.000001 2.140550 90.344114 6.518307 1.262208 33.891665 -7.277150 1.075865 -39.051501 183.820622 0.666000 -0.000003 0.000011 -1.118180 -56.290242 2.092692 1.743327 0.000003 0.000004 -2.052960 86.275159 -6.134376 -3.573365 37.017808 7.200859 -1.507950 
